<svg viewBox="0 0 330 200" xmlns="http://www.w3.org/2000/svg"><g><g><g><g><g><line x1="49.868003845214844" y1="174" x2="44.868003845214844" y2="174" style="visibility: inherit;" fill="rgb(0, 0, 0)" stroke="rgb(204, 204, 204)" stroke-width="1px"></line><line x1="49.868003845214844" y1="156.60000000000002" x2="44.868003845214844" y2="156.60000000000002" style="visibility: inherit;" fill="rgb(0, 0, 0)" stroke="rgb(204, 204, 204)" stroke-width="1px"></line><line x1="49.868003845214844" y1="139.20000000000002" x2="44.868003845214844" y2="139.20000000000002" style="visibility: inherit;" fill="rgb(0, 0, 0)" stroke="rgb(204, 204, 204)" stroke-width="1px"></line><line x1="49.868003845214844" y1="121.80000000000004" x2="44.868003845214844" y2="121.80000000000004" style="visibility: inherit;" fill="rgb(0, 0, 0)" stroke="rgb(204, 204, 204)" stroke-width="1px"></line><line x1="49.868003845214844" y1="104.40000000000002" x2="44.868003845214844" y2="104.40000000000002" style="visibility: inherit;" fill="rgb(0, 0, 0)" stroke="rgb(204, 204, 204)" stroke-width="1px"></line><line x1="49.868003845214844" y1="87" x2="44.868003845214844" y2="87" style="visibility: inherit;" fill="rgb(0, 0, 0)" stroke="rgb(204, 204, 204)" stroke-width="1px"></line><line x1="49.868003845214844" y1="69.60000000000002" x2="44.868003845214844" y2="69.60000000000002" style="visibility: inherit;" fill="rgb(0, 0, 0)" stroke="rgb(204, 204, 204)" stroke-width="1px"></line><line x1="49.868003845214844" y1="52.2" x2="44.868003845214844" y2="52.2" style="visibility: inherit;" fill="rgb(0, 0, 0)" stroke="rgb(204, 204, 204)" stroke-width="1px"></line><line x1="49.868003845214844" y1="34.80000000000004" x2="44.868003845214844" y2="34.80000000000004" style="visibility: inherit;" fill="rgb(0, 0, 0)" stroke="rgb(204, 204, 204)" stroke-width="1px"></line><line x1="49.868003845214844" y1="17.400000000000006" x2="44.868003845214844" y2="17.400000000000006" style="visibility: inherit;" fill="rgb(0, 0, 0)" stroke="rgb(204, 204, 204)" stroke-width="1px"></line><line x1="49.868003845214844" y1="0" x2="44.868003845214844" y2="0" style="visibility: inherit;" fill="rgb(0, 0, 0)" stroke="rgb(204, 204, 204)" stroke-width="1px"></line></g><g transform="translate(39.868003845214844, 0)"><text style="text-anchor: end; visibility: hidden; font-family: &quot;Helvetica Neue&quot;, sans-serif; font-size: 12px; font-weight: 200;" x="0" y="174" dx="0em" dy="0.3em" fill="rgb(50, 49, 63)" stroke="none" stroke-width="1px">0.55</text><text style="text-anchor: end; visibility: inherit; font-family: &quot;Helvetica Neue&quot;, sans-serif; font-size: 12px; font-weight: 200;" x="0" y="156.60000000000002" dx="0em" dy="0.3em" fill="rgb(50, 49, 63)" stroke="none" stroke-width="1px">0.6</text><text style="text-anchor: end; visibility: hidden; font-family: &quot;Helvetica Neue&quot;, sans-serif; font-size: 12px; font-weight: 200;" x="0" y="139.20000000000002" dx="0em" dy="0.3em" fill="rgb(50, 49, 63)" stroke="none" stroke-width="1px">0.65</text><text style="text-anchor: end; visibility: inherit; font-family: &quot;Helvetica Neue&quot;, sans-serif; font-size: 12px; font-weight: 200;" x="0" y="121.80000000000004" dx="0em" dy="0.3em" fill="rgb(50, 49, 63)" stroke="none" stroke-width="1px">0.7</text><text style="text-anchor: end; visibility: hidden; font-family: &quot;Helvetica Neue&quot;, sans-serif; font-size: 12px; font-weight: 200;" x="0" y="104.40000000000002" dx="0em" dy="0.3em" fill="rgb(50, 49, 63)" stroke="none" stroke-width="1px">0.75</text><text style="text-anchor: end; visibility: inherit; font-family: &quot;Helvetica Neue&quot;, sans-serif; font-size: 12px; font-weight: 200;" x="0" y="87" dx="0em" dy="0.3em" fill="rgb(50, 49, 63)" stroke="none" stroke-width="1px">0.8</text><text style="text-anchor: end; visibility: hidden; font-family: &quot;Helvetica Neue&quot;, sans-serif; font-size: 12px; font-weight: 200;" x="0" y="69.60000000000002" dx="0em" dy="0.3em" fill="rgb(50, 49, 63)" stroke="none" stroke-width="1px">0.85</text><text style="text-anchor: end; visibility: inherit; font-family: &quot;Helvetica Neue&quot;, sans-serif; font-size: 12px; font-weight: 200;" x="0" y="52.2" dx="0em" dy="0.3em" fill="rgb(50, 49, 63)" stroke="none" stroke-width="1px">0.9</text><text style="text-anchor: end; visibility: hidden; font-family: &quot;Helvetica Neue&quot;, sans-serif; font-size: 12px; font-weight: 200;" x="0" y="34.80000000000004" dx="0em" dy="0.3em" fill="rgb(50, 49, 63)" stroke="none" stroke-width="1px">0.95</text><text style="text-anchor: end; visibility: inherit; font-family: &quot;Helvetica Neue&quot;, sans-serif; font-size: 12px; font-weight: 200;" x="0" y="17.400000000000006" dx="0em" dy="0.3em" fill="rgb(50, 49, 63)" stroke="none" stroke-width="1px">1</text><text style="text-anchor: end; visibility: hidden; font-family: &quot;Helvetica Neue&quot;, sans-serif; font-size: 12px; font-weight: 200;" x="0" y="0" dx="0em" dy="0.3em" fill="rgb(50, 49, 63)" stroke="none" stroke-width="1px">1.05</text></g><line x1="49.868003845214844" y1="0" x2="49.868003845214844" y2="174" fill="rgb(0, 0, 0)" stroke="rgb(204, 204, 204)" stroke-width="1px"></line></g></g><g transform="translate(49, 0)" clip-path="url(#clip_0)"><clipPath id="clip_0"><rect width="280" height="174"></rect></clipPath><g><g><g><line x1="0" y1="0" x2="0" y2="174" fill="rgb(0, 0, 0)" stroke="rgb(60, 60, 60)" stroke-width="1px" opacity="0.25"></line><line x1="23.344333012898762" y1="0" x2="23.344333012898762" y2="174" fill="rgb(0, 0, 0)" stroke="rgb(60, 60, 60)" stroke-width="1px" opacity="0.25"></line><line x1="46.688666025797524" y1="0" x2="46.688666025797524" y2="174" fill="rgb(0, 0, 0)" stroke="rgb(60, 60, 60)" stroke-width="1px" opacity="0.25"></line><line x1="70.03299903869629" y1="0" x2="70.03299903869629" y2="174" fill="rgb(0, 0, 0)" stroke="rgb(60, 60, 60)" stroke-width="1px" opacity="0.25"></line><line x1="93.37733205159505" y1="0" x2="93.37733205159505" y2="174" fill="rgb(0, 0, 0)" stroke="rgb(60, 60, 60)" stroke-width="1px" opacity="0.25"></line><line x1="116.72166506449382" y1="0" x2="116.72166506449382" y2="174" fill="rgb(0, 0, 0)" stroke="rgb(60, 60, 60)" stroke-width="1px" opacity="0.25"></line><line x1="140.06599807739258" y1="0" x2="140.06599807739258" y2="174" fill="rgb(0, 0, 0)" stroke="rgb(60, 60, 60)" stroke-width="1px" opacity="0.25"></line><line x1="163.41033109029135" y1="0" x2="163.41033109029135" y2="174" fill="rgb(0, 0, 0)" stroke="rgb(60, 60, 60)" stroke-width="1px" opacity="0.25"></line><line x1="186.7546641031901" y1="0" x2="186.7546641031901" y2="174" fill="rgb(0, 0, 0)" stroke="rgb(60, 60, 60)" stroke-width="1px" opacity="0.25"></line><line x1="210.09899711608887" y1="0" x2="210.09899711608887" y2="174" fill="rgb(0, 0, 0)" stroke="rgb(60, 60, 60)" stroke-width="1px" opacity="0.25"></line><line x1="233.44333012898764" y1="0" x2="233.44333012898764" y2="174" fill="rgb(0, 0, 0)" stroke="rgb(60, 60, 60)" stroke-width="1px" opacity="0.25"></line><line x1="256.78766314188636" y1="0" x2="256.78766314188636" y2="174" fill="rgb(0, 0, 0)" stroke="rgb(60, 60, 60)" stroke-width="1px" opacity="0.25"></line><line x1="280.13199615478516" y1="0" x2="280.13199615478516" y2="174" fill="rgb(0, 0, 0)" stroke="rgb(60, 60, 60)" stroke-width="1px" opacity="0.25"></line></g><g><line x1="0" y1="174" x2="280.13199615478516" y2="174" fill="rgb(0, 0, 0)" stroke="rgb(60, 60, 60)" stroke-width="1px" opacity="0.25"></line><line x1="0" y1="156.60000000000002" x2="280.13199615478516" y2="156.60000000000002" fill="rgb(0, 0, 0)" stroke="rgb(60, 60, 60)" stroke-width="1px" opacity="0.25"></line><line x1="0" y1="139.20000000000002" x2="280.13199615478516" y2="139.20000000000002" fill="rgb(0, 0, 0)" stroke="rgb(60, 60, 60)" stroke-width="1px" opacity="0.25"></line><line x1="0" y1="121.80000000000004" x2="280.13199615478516" y2="121.80000000000004" fill="rgb(0, 0, 0)" stroke="rgb(60, 60, 60)" stroke-width="1px" opacity="0.25"></line><line x1="0" y1="104.40000000000002" x2="280.13199615478516" y2="104.40000000000002" fill="rgb(0, 0, 0)" stroke="rgb(60, 60, 60)" stroke-width="1px" opacity="0.25"></line><line x1="0" y1="87" x2="280.13199615478516" y2="87" fill="rgb(0, 0, 0)" stroke="rgb(60, 60, 60)" stroke-width="1px" opacity="0.25"></line><line x1="0" y1="69.60000000000002" x2="280.13199615478516" y2="69.60000000000002" fill="rgb(0, 0, 0)" stroke="rgb(60, 60, 60)" stroke-width="1px" opacity="0.25"></line><line x1="0" y1="52.2" x2="280.13199615478516" y2="52.2" fill="rgb(0, 0, 0)" stroke="rgb(60, 60, 60)" stroke-width="1px" opacity="0.25"></line><line x1="0" y1="34.80000000000004" x2="280.13199615478516" y2="34.80000000000004" fill="rgb(0, 0, 0)" stroke="rgb(60, 60, 60)" stroke-width="1px" opacity="0.25"></line><line x1="0" y1="17.400000000000006" x2="280.13199615478516" y2="17.400000000000006" fill="rgb(0, 0, 0)" stroke="rgb(60, 60, 60)" stroke-width="1px" opacity="0.25"></line><line x1="0" y1="0" x2="280.13199615478516" y2="0" fill="rgb(0, 0, 0)" stroke="rgb(60, 60, 60)" stroke-width="1px" opacity="0.25"></line></g></g></g><g><g><line x1="0" y1="365.4" x2="280.13199615478516" y2="365.4" fill="rgb(0, 0, 0)" stroke="rgb(153, 153, 153)" stroke-width="1.5px"></line></g></g><g><g><line x1="23.344333012898762" y1="0" x2="23.344333012898762" y2="174" fill="rgb(0, 0, 0)" stroke="rgb(153, 153, 153)" stroke-width="1.5px"></line></g></g><g><g><g><g><g><path style="fill: none; --darkreader-inline-stroke:#cc8068; --darkreader-inline-fill:none;" stroke="rgb(255, 112, 67)" stroke-width="2px" d="M24.74499299367269,-5.285191998266612L24.978436323801677,0.13051507409230112L25.211879653930662,5.214981914469291L25.44532298405965,9.30588281670336L25.67876631418864,12.829632422031182L25.912209644317628,16.114143673125398L26.145652974446616,19.12421233937343L26.3790963045756,21.686365745797843L26.61253963470459,24.14476480521637L26.845982964833578,26.115669940159904L27.079426294962566,28.033092799335463L27.312869625091555,29.556317007366772L27.54631295522054,29.007781131879597L27.779756285349528,29.778683261320566L28.013199615478516,30.88475823422374L28.2466429456075,31.783186635797023L28.480086275736493,32.713200557005734L28.713529605865478,33.53455947239203L28.946972935994467,34.43266370521624L29.180416266123455,34.72380995481842L29.41385959625244,34.690616676985655L29.64730292638143,35.337594719140185L29.88074625651042,35.80040423482791L30.114189586639405,35.84666249588645L30.347632916768394,36.053300068581336L30.58107624689738,35.664355784577594L30.814519577026367,35.86727694402896L31.047962907155355,35.94591029708832L31.28140623728434,36.052388728453764L31.514849567413332,36.35809087877524L31.748292897542317,36.5749572393311L31.981736227671306,36.778803899867086L32.2151795578003,37.389239033022164L32.44862288792928,37.11412800272802L32.68206621805827,37.13200949742145L32.91550954818725,37.12733092733245L33.148952878316244,36.909607460602984L33.38239620844523,37.043671504583244L33.61583953857422,36.96504878515759L33.849282868703206,36.87620778747697L34.0827261988322,36.69150412957157L34.31616952896118,36.9440973668172L34.54961285909017,36.91506983213827L34.78305618921915,37.1506444154592L35.016499519348145,37.3732662498015L35.24994284947713,37.059475210848035L35.48338617960612,37.29685156556559L35.716829509735106,37.60139180786999L35.95027283986409,37.87110964755786L36.18371616999308,37.90801292598587L36.41715950012207,37.62167367661195L36.65060283025106,37.49990083530071L36.884046160380045,37.52487408730099L37.11748949050904,37.72921140916776L37.35093282063802,37.76422272639053L37.58437615076701,37.65492565701351L37.817819480896,37.95613971275063L38.05126281102498,37.904470113050735L38.28470614115397,37.64322753139251L38.51814947128296,37.41175950162358L38.751592801411945,37.52291606779548L38.98503613154093,37.605731013510535L39.21847946166992,38.25966316407553L39.451922791798914,38.31798658100146L39.6853661219279,37.8892797644578L39.918809452056884,38.26176224801796L40.152252782185876,38.78108008059178L40.38569611231486,38.64499135585024L40.619139442443846,38.97985413891905L40.85258277257284,38.566356544630736L41.08602610270182,38.407201469503065L41.31946943283081,38.55908248219626L41.5529127629598,38.866380256377084L41.786356093088784,39.119789682604335L42.01979942321777,38.39247304128256L42.25324275334677,39.0661922903457L42.48668608347575,39.119204948639805L42.72012941360474,39.15458023923395L42.95357274373372,39.543742692337986L43.187016073862715,39.00402925721798L43.4204594039917,39.73739237732886L43.653902734120685,39.41206486670495L43.88734606424968,39.84436794071385L44.12078939437866,40.24353707759971L44.354232724507646,39.656793442543716L44.58767605463664,39.14615074585461L44.82111938476562,38.945767172518856L45.05456271489461,38.94044171830629L45.28800604502359,38.848792485360036L45.52144937515259,39.34336082217919L45.75489270528158,39.53212510155336L45.98833603541056,38.95691797856506L46.221779365539554,38.832617469573165L46.45522269566854,39.13187358614451L46.688666025797524,39.21821083686737L46.922109355926516,39.300247333419236L47.1555526860555,40.050421856625036L47.388996016184485,40.13552641796062L47.62243934631348,39.68877116159791L47.85588267644246,39.47743607113475L48.08932600657145,39.52922722190448L48.32276933670044,40.18034251981874L48.55621266682943,39.80165888103184L48.789655996958416,40.02172157068455L49.0230993270874,40.599588385220784L49.25654265721639,40.19908366620328L49.48998598734538,39.944302628158255L49.72342931747436,40.61167211873456L49.956872647603355,39.93873184408619L50.19031597773234,40.32541968277616L50.423759307861324,39.80691368252948L50.657202637990316,40.044554856246236L50.8906459681193,39.367507125631334L51.12408929824829,39.50336909395176L51.35753262837728,38.85267897666529L51.59097595850627,39.846431242352935L51.824419288635255,39.843923713520894L52.05786261876424,39.88645949468358L52.29130594889323,40.438838339479815L52.52474927902222,41.25191285171039L52.7581926091512,41.044621107327515L52.991635939280194,41.3467516263411L53.22507926940918,41.25201475143942L53.45852259953816,41.236167938235496L53.691965929667155,41.23469961090271L53.92540925979614,41.31045769455068L54.15885258992513,41.29546914340281L54.39229592005412,40.996770831592215L54.62573925018311,40.90326780596217L54.859182580312094,40.6390614755085L55.09262591044108,40.97957532448359L55.32606924057007,41.113467278735584L55.559512570699056,41.28764943996475L55.79295590082804,40.10268567990903L56.02639923095703,40.8802910840013L56.25984256108602,40.56801807615156L56.493285891215,41.73895066578979L56.726729221343994,41.402804679869405L56.960172551472986,41.07879491043019L57.19361588160197,41.33528769607503L57.427059211730956,41.518496550292724L57.66050254185995,41.824172194702015L57.89394587198893,42.33201386445916L58.12738920211792,42.48038742252683L58.36083253224691,42.73740023916065L58.594275862375895,42.79001987066928L58.82771919250488,43.187263856453114L59.06116252263387,41.91172913677835L59.29460585276286,42.01923259238808L59.52804918289184,41.80460811698683L59.76149251302084,41.41207286503462L59.994935843149825,41.79401196471781L60.22837917327881,43.506739419889016L60.461822503407795,44.22987722050644L60.69526583353679,43.747202302762815L60.92870916366577,43.5033219347888L61.16215249379476,44.009475460677976L61.39559582392375,43.498505024331564L61.629039154052734,43.08485040916071L61.86248248418172,42.63629419477624L62.09592581431071,42.66720366759208L62.329369144439696,43.60513621499004L62.56281247456868,44.377800700246496L62.796255804697665,44.06929198096947L63.029699134826664,43.3475804376051L63.26314246495565,43.31101576134239L63.496585795084634,44.055907495288096L63.730029125213626,43.0560921808887L63.96347245534261,42.73815050964407L64.19691578547159,42.84648285415679L64.4303591156006,43.38475782696554L64.66380244572957,44.03948531522843L64.89724577585856,43.78736541017585L65.13068910598756,43.7482850488704L65.36413243611653,43.5344048557688L65.59757576624553,44.37103884089049L65.8310190963745,44.62801810662785L66.0644624265035,45.40626200533413L66.29790575663249,45.536774647811086L66.53134908676147,46.96573712145036L66.76479241689046,46.222264691083126L66.99823574701945,45.789572536878865L67.23167907714844,45.32146277185268L67.46512240727743,46.62847866866582L67.69856573740641,45.59477305325032L67.9320090675354,46.3395168394575L68.1654523976644,45.74021519248063L68.39889572779337,46.37964705600963L68.63233905792237,47.05294497951644L68.86578238805134,45.21487594690785L69.09922571818034,45.81612359670919L69.33266904830933,45.782583742070926L69.5661123784383,47.07925479693937L69.7995557085673,47.710907236836704L70.03299903869629,46.648425216735816L70.26644236882528,46.33049367145385L70.49988569895426,46.64950036928467L70.73332902908325,45.68905311540016L70.96677235921224,45.229755397529914L71.20021568934122,46.2995879720995L71.43365901947021,46.49214040227824L71.6671023495992,47.3419699942356L71.90054567972818,48.80242631645716L72.13398900985717,48.85424713737794L72.36743233998617,48.45215500621215L72.60087567011514,48.14727858798635L72.83431900024414,48.00899041710457L73.06776233037311,49.229512444842854L73.30120566050212,48.44820175630392L73.53464899063111,47.720143435374155L73.76809232076009,47.41362059949353L74.00153565088908,47.5608388330848L74.23497898101807,49.035767120499074L74.46842231114705,48.740381037222576L74.70186564127604,48.32866051854326L74.93530897140504,48.149464205870856L75.16875230153401,49.23544846294516L75.402195631663,48.99216139267803L75.635638961792,48.24679139584852L75.86908229192098,48.81937444764702L76.10252562204997,49.01318062638242L76.33596895217896,49.26748437222837L76.56941228230794,49.63582923493982L76.80285561243693,48.863631177438506L77.03629894256592,49.37859937220408L77.2697422726949,48.51054772299288L77.50318560282389,48.67533656455136L77.73662893295288,48.922493255716915L77.97007226308186,49.48018449102784L78.20351559321085,48.958626956671125L78.43695892333984,49.906748382407244L78.67040225346882,51.122859301661165L78.90384558359783,50.79504427820132L79.1372889137268,49.7904713339191L79.3707322438558,48.747664758359264L79.60417557398479,48.15521846103363L79.83761890411377,48.74859177760898L80.07106223424276,48.443571551398165L80.30450556437175,50.146659040305465L80.53794889450073,51.78831152907222L80.77139222462972,51.54860438341626L81.00483555475871,52.190751737563204L81.23827888488769,52.841451813106744L81.47172221501668,52.05835720618067L81.70516554514568,51.267988624092965L81.93860887527465,51.29838898057764L82.17205220540365,52.095191644877346L82.40549553553264,53.35525404408584L82.63893886566161,53.669643954008876L82.8723821957906,54.63119841311578L83.1058255259196,53.29021259721638L83.33926885604858,53.55560621128396L83.57271218617757,53.53583532634926L83.80615551630656,53.295773027322L84.03959884643554,52.4847839915641L84.27304217656453,51.899523043864264L84.50648550669354,50.393304276605434L84.73992883682251,52.954568781936146L84.9733721669515,52.877277096798394L85.20681549708048,52.23121393721725L85.44025882720948,51.63738812566655L85.67370215733847,50.87908801532302L85.90714548746745,52.11447383580517L86.14058881759644,53.090633936035104L86.37403214772543,53.96562862593379L86.60747547785441,55.380541478386235L86.8409188079834,54.552954346412875L87.07436213811239,53.775076822325246L87.30780546824137,55.377339966228405L87.54124879837036,57.067279376465564L87.77469212849935,56.542114242242874L88.00813545862833,56.447548532680926L88.24157878875732,55.65135025989788L88.47502211888632,56.40663519866334L88.70846544901529,56.94105835537354L88.94190877914428,55.895035918833244L89.17535210927328,54.64752289788812L89.40879543940225,55.248292677026356L89.64223876953125,55.871403317702644L89.87568209966024,56.08380243602568L90.10912542978922,56.2871923388432L90.34256875991821,58.3106835902566L90.57601209004719,57.92371270542348L90.80945542017619,58.61592010906344L91.04289875030518,57.04681757599714L91.27634208043416,57.349793178502324L91.50978541056315,58.4212207786224L91.74322874069215,59.097007998942246L91.97667207082112,57.93816196031504L92.21011540095012,56.94978888456305L92.44355873107911,59.483203084613535L92.67700206120809,59.03873734912021L92.91044539133708,56.26019276881664L93.14388872146607,56.18924474301606L93.37733205159505,56.183572537795754L93.61077538172404,57.14630118793012L93.84421871185303,56.89578495851613L94.07766204198201,56.792328190991L94.311105372111,57.64652133476059L94.54454870224,56.9688373690326L94.77799203236897,57.283407619326056L95.01143536249796,59.66671401663346L95.24487869262695,59.41034770014123L95.47832202275593,60.99899044991871L95.71176535288492,61.90276766396366L95.94520868301392,62.2804055820513L96.1786520131429,59.70876998726176L96.4120953432719,61.317607096574605L96.64553867340088,58.88691117032883L96.87898200352987,58.94268171348884L97.11242533365886,61.23354951118657L97.34586866378784,61.911158187241696L97.57931199391683,62.5903036350318L97.81275532404582,63.28842534508158L98.0461986541748,62.87326240233095L98.2796419843038,63.15145345503993L98.51308531443279,61.673253855555686L98.74652864456176,61.86404367533294L98.97997197469076,64.1856185307918L99.21341530481975,62.879601709295386L99.44685863494873,61.01515408053939L99.68030196507772,59.64361885365808L99.91374529520671,59.903758840423606L100.14718862533569,59.93962808410039L100.38063195546468,61.48370936846561L100.61407528559367,61.17966821751493L100.84751861572265,62.03481238223014L101.08096194585164,63.55391437254487L101.31440527598063,62.78110795046172L101.54784860610961,63.283215894849775L101.7812919362386,62.60032767686347L102.01473526636761,62.75533607145009L102.24817859649659,63.54895355784808L102.48162192662558,64.7332784419293L102.71506525675456,65.00284811526745L102.94850858688355,67.62961038512118L103.18195191701254,66.73902107573824L103.41539524714152,64.81526576815413L103.64883857727051,65.45816042982558L103.8822819073995,65.25795715190783L104.11572523752848,63.83285509787686L104.34916856765747,63.42679250742607L104.58261189778646,63.58432158294687L104.81605522791544,63.616935360809364L105.04949855804443,65.45368864797368L105.28294188817343,67.27497146286255L105.5163852183024,68.1663239917617L105.7498285484314,68.21138216742642L105.98327187856039,67.04105693870048L106.21671520868937,66.1721259616212L106.45015853881836,63.91303410663582L106.68360186894735,65.6980389126204L106.91704519907633,66.33815543222802L107.15048852920532,66.29179531316983L107.38393185933431,67.58983449686188L107.61737518946329,67.90930475085152L107.85081851959228,67.00689081483587L108.08426184972126,67.45123823722308L108.31770517985026,67.99036055707991L108.55114850997926,66.91301560106317L108.78459184010823,66.65084944547678L109.01803517023723,67.7942569016306L109.25147850036622,66.14180135243463L109.4849218304952,68.30943122573693L109.71836516062419,69.33917956750392L109.95180849075318,69.41590041399479L110.18525182088216,68.35749881315516L110.41869515101115,69.83402754335576L110.65213848114014,68.6899010841189L110.88558181126912,67.77408875609267L111.11902514139811,68.40088719835776L111.3524684715271,70.98907029814063L111.58591180165608,70.97684038750256L111.81935513178507,69.27113827867464L112.05279846191407,71.05520307065937L112.28624179204304,72.42342007542786L112.51968512217204,73.52177594891273L112.75312845230103,70.84650411838943L112.98657178243,68.98654117724097L113.220015112559,68.21096305931091L113.45345844268799,68.0099409489899L113.68690177281697,69.10004593307193L113.92034510294597,71.17283212527285L114.15378843307495,70.9176651298085L114.38723176320394,70.04398998135801L114.62067509333293,72.03746620484874L114.85411842346191,70.75119081299712L115.0875617535909,70.41866698718792L115.3210050837199,72.701206829886L115.55444841384887,72.68380150958323L115.78789174397787,72.45367953398484L116.02133507410686,71.53864521276152L116.25477840423584,74.841889596529L116.48822173436483,74.578668780653L116.72166506449382,76.08932264061472L116.9551083946228,75.36599159843743L117.18855172475179,74.07638489131347L117.42199505488078,73.73867624118455L117.65543838500976,73.3226115865381L117.88888171513875,74.08440620439475L118.12232504526774,75.6925792237355L118.35576837539672,75.40633366705379L118.58921170552571,74.25173597217442L118.8226550356547,76.65220264363793L119.05609836578368,75.7937499843151L119.28954169591267,76.09557282460399L119.52298502604168,75.99087751586839L119.75642835617066,75.54358719753981L119.98987168629965,77.23820062022067L120.22331501642863,75.2480899163524L120.45675834655762,75.28435577323674L120.69020167668661,74.81227154118204L120.92364500681559,74.33453180898658L121.15708833694458,79.11745069092174L121.39053166707357,79.07268509427107L121.62397499720255,78.92196032261488L121.85741832733154,76.7440252688863L122.09086165746054,76.35121658726561L122.32430498758951,76.21672118237036L122.5577483177185,79.04171289283289L122.7911916478475,80.27865728663359L123.02463497797648,78.0748366029677L123.25807830810547,78.70868680904013L123.49152163823446,76.9379917599541L123.72496496836344,79.29818959103716L123.95840829849243,77.64938395420725L124.19185162862142,76.69337970495236L124.4252949587504,79.2798345093728L124.65873828887939,79.45641881017691L124.89218161900838,79.04088844888693L125.12562494913736,77.43229479571154L125.35906827926635,80.13170960295183L125.59251160939533,78.42264869420517L125.82595493952434,78.29260418539519L126.05939826965333,80.41750506952566L126.2928415997823,82.88364108798002L126.5262849299113,81.92759882209955L126.75972826004029,83.16107766865647L126.99317159016927,80.82020260476446L127.22661492029826,80.52528898229231L127.46005825042725,80.085202514589L127.69350158055623,80.19249796596776L127.92694491068522,81.64884901838067L128.1603882408142,80.52143131730892L128.39383157094318,80.38353679560385L128.62727490107218,82.54842343081691L128.8607182312012,81.81599249690568L129.09416156133017,81.47079577356457L129.32760489145915,81.968239545285L129.56104822158815,82.51982136694154L129.79449155171713,82.15966633395884L130.0279348818461,85.23224194667658L130.2613782119751,86.02112670792296L130.4948215421041,85.75862449200841L130.72826487223307,86.2941687786096L130.96170820236208,89.1238508727261L131.19515153249105,88.60193947947674L131.42859486262003,85.1763847684661L131.662038192749,84.50719295595884L131.89548152287801,86.41479003581287L132.128924853007,86.02561253161954L132.36236818313597,88.0190035548909L132.59581151326498,87.3218778256836L132.82925484339395,88.65524137283937L133.06269817352293,85.41057957330688L133.29614150365194,86.6007079048118L133.52958483378092,86.34569921035535L133.7630281639099,86.64068040572981L133.9964714940389,84.17467042758096L134.2299148241679,88.53642758461254L134.46335815429688,88.19784518678438L134.69680148442586,87.42286051630647L134.93024481455487,87.39684562039179L135.16368814468385,87.2358323440063L135.39713147481282,84.88790058285643L135.63057480494183,85.0528852509895L135.8640181350708,83.69045666023723L136.09746146519979,85.38139651277442L136.3309047953288,86.94160213267075L136.56434812545777,89.84310264465374L136.79779145558675,90.98428161547875L137.03123478571575,89.7019607615846L137.26467811584473,90.13372839405406L137.4981214459737,91.34000386306208L137.7315647761027,92.57730159228184L137.9650081062317,96.60862266221727L138.19845143636067,93.50809062003546L138.43189476648965,90.9705149059263L138.66533809661865,90.96707767753404L138.89878142674763,91.68520863120915L139.1322247568766,92.51573548832633L139.36566808700562,94.64439723324237L139.5991114171346,97.22198614496862L139.83255474726357,95.28056112896724L140.06599807739258,96.53194042188717L140.29944140752158,96.26403325642818L140.53288473765056,95.68471529153389L140.76632806777954,94.53267552654388L140.99977139790852,95.78267633796001L141.23321472803752,93.80576260972184L141.4666580581665,92.37911850028135L141.7001013882955,93.35461272843418L141.93354471842449,94.1496814706787L142.16698804855346,92.69215221279055L142.40043137868244,94.80854175492043L142.63387470881145,96.25339169266174L142.86731803894043,96.4453517232081L143.10076136906943,95.55514281950833L143.3342046991984,95.91549684740566L143.5676480293274,97.78514535270607L143.80109135945636,95.53712978745985L144.03453468958537,95.3107008956998L144.26797801971435,94.81636482376632L144.50142134984335,97.68357906042802L144.73486467997233,97.44510165988962L144.9683080101013,99.38440447890498L145.2017513402303,99.12552933361371L145.4351946703593,98.70646857062724L145.66863800048827,95.77264771723597L145.90208133061728,93.91278330960183L146.13552466074623,94.76732784556337L146.36896799087523,94.84380006579754L146.60241132100424,93.80746026866552L146.83585465113322,95.47036717911314L147.06929798126222,98.17577638733239L147.3027413113912,98.59272594516187L147.53618464152018,95.63508098640865L147.76962797164916,98.47865197014112L148.00307130177816,97.1162942323166L148.23651463190714,96.63256699043974L148.46995796203615,96.80951623796503L148.70340129216513,97.8635644333308L148.9368446222941,97.80620844225557L149.17028795242308,98.87246213352964L149.4037312825521,100.6332838749664L149.63717461268106,98.34775879238707L149.87061794281007,98.81101920518078L150.10406127293905,95.1688329929876L150.33750460306803,97.48493260829257L150.570947933197,98.25821073227291L150.804391263326,97.72609358413915L151.037834593455,98.82780327191293L151.271277923584,98.67900366419755L151.504721253713,99.59882586261156L151.73816458384195,99.5761542478831L151.97160791397096,98.36751429555602L152.20505124409993,98.75804830740566L152.43849457422894,100.70110408515137L152.67193790435792,100.79813061744217L152.9053812344869,98.56771957987692L153.13882456461587,102.202948508943L153.37226789474488,105.21423885481649L153.60571122487386,107.16555451665575L153.83915455500286,108.11902976581008L154.07259788513184,107.61002847044796L154.30604121526082,105.0917105560847L154.5394845453898,105.55514893802095L154.7729278755188,103.20868231935553L155.00637120564778,104.38758909513504L155.2398145357768,103.14578488713474L155.47325786590577,104.139481048858L155.70670119603474,104.22982439820521L155.94014452616372,103.87118994608255L156.17358785629273,106.1620167554303L156.4070311864217,107.22594908600355L156.6404745165507,104.0958677609283L156.8739178466797,102.93521617886535L157.10736117680867,101.8452752151317L157.34080450693764,103.21215299834172L157.57424783706665,105.1795427183471L157.80769116719566,101.90787407995236L158.04113449732463,105.7034737994729L158.2745778274536,108.31502714696279L158.5080211575826,106.76846437777729L158.7414644877116,107.99802841380625L158.97490781784057,107.93824581644175L159.20835114796958,110.21969412530206L159.44179447809856,105.97437920787775L159.67523780822754,105.29993176590709L159.9086811383565,107.39071703989096L160.14212446848552,108.55339886330836L160.3755677986145,109.52741310109656L160.6090111287435,112.41683510965086L160.84245445887248,111.01357949749217L161.07589778900146,113.90543531522503L161.30934111913044,109.45273752656787L161.54278444925944,111.67636230735306L161.77622777938842,113.34363549201684L162.00967110951743,112.14955961018202L162.2431144396464,112.46398728435872L162.47655776977538,112.76320926514649L162.71000109990436,111.32868376831638L162.94344443003337,112.73240976965684L163.17688776016234,110.90842346570648L163.41033109029135,110.40282591475102L163.6437744204203,110.88898183043631L163.8772177505493,109.73260580739877L164.1106610806783,110.48970392251911L164.3441044108073,107.57566817107738L164.5775477409363,107.22410741509758L164.81099107106527,111.13930220998385L165.04443440119425,109.34018471954504L165.27787773132323,108.78149822186377L165.51132106145224,110.42194340485901L165.7447643915812,113.25002879773717L165.97820772171022,115.60336091801608L166.2116510518392,114.66371777227575L166.44509438196818,111.8675666580859L166.67853771209715,112.95977678836961L166.91198104222616,110.64181852663506L167.14542437235514,110.786745702773L167.37886770248414,110.98343768808225L167.61231103261312,114.03907685692894L167.8457543627421,112.9474311758029L168.07919769287108,115.14573737674641L168.31264102300008,115.35365771230275L168.54608435312906,116.93797908172736L168.77952768325807,118.86094319549636L169.01297101338707,115.91417826013227L169.24641434351602,116.74330214498318L169.47985767364503,114.72545979880019L169.713301003774,111.51741733588415L169.946744333903,110.14611568473362L170.180187664032,111.5294981004154L170.41363099416097,112.62824140556783L170.64707432428995,118.46225564580041L170.88051765441895,117.78041225970316L171.11396098454793,120.75169782579263L171.34740431467694,120.64755643809035L171.5808476448059,116.50984224679587L171.8142909749349,115.97231308580946L172.04773430506387,115.44530025459238L172.28117763519288,116.92836442552154L172.51462096532185,116.55166268683757L172.74806429545086,115.45745536051565L172.98150762557984,113.9292516586922L173.21495095570882,116.50918555484665L173.4483942858378,116.90989113942655L173.6818376159668,117.35419584927482L173.91528094609578,122.16145956049877L174.14872427622478,120.57181132513594L174.38216760635376,124.17606052326148L174.61561093648274,123.99741350511903L174.84905426661172,122.97727687656993L175.08249759674072,123.04992695510454L175.31594092686973,123.41519039547487L175.5493842569987,122.17058102653053L175.78282758712768,122.0252044318058L176.01627091725666,121.80490342843163L176.24971424738567,122.24917117159146L176.48315757751465,119.9240083754097L176.71660090764365,117.93771034598558L176.95004423777263,115.37398662400372L177.1834875679016,114.71256751914103L177.41693089803059,117.99292333542871L177.6503742281596,118.73801460993033L177.88381755828857,120.49518528420771L178.11726088841758,120.70642462038425L178.35070421854655,121.91715860523838L178.58414754867553,120.9250400171164L178.8175908788045,119.844902435868L179.05103420893352,120.32499991412698L179.2844775390625,119.91259529683435L179.5179208691915,118.86745727117922L179.75136419932048,119.66644876990357L179.98480752944945,122.30814101334593L180.21825085957843,121.18429634354223L180.45169418970744,120.86334075320786L180.68513751983642,122.73947496050019L180.91858084996542,126.35261094828499L181.15202418009437,124.11327665960818L181.38546751022338,122.8190762252571L181.61891084035238,123.53149639433398L181.85235417048136,121.70474565306768L182.08579750061037,124.27241161989846L182.31924083073935,124.91780169682312L182.55268416086832,126.38985582278139L182.7861274909973,125.36405585817079L183.0195708211263,123.52909603245011L183.2530141512553,122.13061580733626L183.4864574813843,123.57053014800648L183.71990081151327,125.94158953884661L183.95334414164225,122.22190635239733L184.18678747177123,124.57916523477826L184.42023080190023,125.7920370284402L184.6536741320292,124.78033425472285L184.88711746215822,126.5783791760332L185.1205607922872,123.53507401822368L185.35400412241617,122.08020594047522L185.58744745254515,122.62833144621263L185.82089078267416,122.95089275810841L186.05433411280313,125.0518440769537L186.28777744293214,124.68155482568882L186.52122077306115,125.07439392065135L186.7546641031901,124.88820492538886L186.9881074333191,125.36886175223039L187.22155076344808,128.2277639469376L187.45499409357708,128.26728395944065L187.68843742370606,130.02029122069612L187.92188075383504,129.6889912531086L188.15532408396402,128.88336284192255L188.38876741409302,129.03360853691012L188.622210744222,125.80162565528818L188.855654074351,127.23305369746367L189.08909740448,130.25525328476243L189.32254073460896,130.7646549615801L189.55598406473794,129.48385788402206L189.78942739486695,125.90990974307803L190.02287072499593,126.50027081609221L190.25631405512493,124.22978357577594L190.4897573852539,124.98349150242966L190.7232007153829,126.12275487078762L190.95664404551187,125.89266752894842L191.19008737564087,127.81193924722744L191.42353070576985,128.9543673180203L191.65697403589886,129.68205572024942L191.89041736602783,125.47942821059206L192.1238606961568,125.83304100914943L192.3573040262858,125.58641132881732L192.5907473564148,125.54753033381994L192.8241906865438,131.9248468021291L193.05763401667278,129.87997956870424L193.29107734680176,128.70043490766545L193.52452067693073,126.76146316551605L193.75796400705974,128.52768922819757L193.99140733718872,127.39274446114342L194.22485066731772,129.78728886571196L194.4582939974467,131.06816528872648L194.69173732757568,134.0327405466795L194.92518065770466,130.32280171478752L195.15862398783366,128.96518234112838L195.39206731796264,129.485219271773L195.62551064809165,131.46118977534405L195.85895397822063,132.34162624161024L196.0923973083496,134.3613840167557L196.32584063847858,134.72877342610568L196.5592839686076,131.26556964343195L196.79272729873657,129.85610078111537L197.02617062886557,130.08145828208472L197.25961395899455,133.5461541936466L197.49305728912353,135.97210852418357L197.7265006192525,132.5392411810995L197.9599439493815,132.1387979282642L198.1933872795105,134.41865259729056L198.4268306096395,136.40441560698883L198.66027393976844,135.85177637072402L198.89371726989745,134.17138816435337L199.12716060002646,134.6682581610632L199.36060393015543,133.06279882592867L199.59404726028444,135.1199509287054L199.82749059041342,135.5819107618436L200.0609339205424,137.26197095432906L200.29437725067137,134.51770394634622L200.52782058080038,133.95330049509653L200.76126391092936,133.558056518524L200.99470724105836,131.08802219694203L201.22815057118734,133.64367889204826L201.46159390131632,132.379186442132L201.6950372314453,132.48601392903043L201.9284805615743,133.29658850191896L202.16192389170328,136.45000144099515L202.3953672218323,137.7816637865026L202.62881055196127,136.80250510402436L202.86225388209024,137.3864503051514L203.09569721221922,137.85943829451057L203.32914054234823,136.5485707106236L203.5625838724772,139.7451914871957L203.7960272026062,139.4909517339007L204.02947053273522,136.9986965019188L204.26291386286417,133.95381848327406L204.49635719299317,133.13690630145126L204.72980052312215,135.80738883702313L204.96324385325116,132.073467726042L205.19668718338013,133.41158013971454L205.4301305135091,133.465364259671L205.6635738436381,132.02948650013857L205.8970171737671,137.7875535600868L206.13046050389607,141.37249023160263L206.36390383402508,140.3546996595915L206.59734716415406,139.83226355567314L206.83079049428304,136.79816848191462L207.064233824412,136.55213551373984L207.29767715454102,136.15929058940236L207.53112048467,139.30761760086432L207.764563814799,138.5239202690757L207.99800714492798,137.61052769855485L208.23145047505696,135.98698956987755L208.46489380518594,137.55689917100364L208.69833713531494,137.6569517355734L208.93178046544392,136.64310689339482L209.16522379557293,135.3073468516436L209.3986671257019,134.6380615037779L209.63211045583088,133.90776448023917L209.86555378595986,134.98274554117086L210.09899711608887,135.91529874148108L210.33244044621787,139.11982892597996L210.56588377634685,138.44178819802573L210.79932710647583,137.65639806835156L211.0327704366048,138.7821973004836L211.2662137667338,138.58557438843837L211.4996570968628,136.7355259036624L211.7331004269918,138.41745094869157L211.96654375712077,138.84276503332626L212.19998708724975,139.46769120459658L212.43343041737873,140.64366094925944L212.66687374750774,137.17605945026247L212.9003170776367,140.2558632740698L213.13376040776572,140.18586026485693L213.3672037378947,139.91988184723817L213.60064706802368,137.28928392096495L213.83409039815265,137.8929526958712L214.06753372828166,138.8195634075313L214.30097705841064,139.2266075818723L214.53442038853964,141.36557915025864L214.76786371866862,139.86245076545427L215.0013070487976,137.21102558546278L215.23475037892658,138.7567806039632L215.46819370905558,142.095946070813L215.70163703918456,143.20458432034422L215.93508036931357,141.87634638306957L216.16852369944252,141.587236052498L216.40196702957152,140.76016801699683L216.63541035970053,138.60812647166662L216.8688536898295,138.64292273892647L217.1022970199585,141.67097794755512L217.3357403500875,136.91263931598792L217.56918368021647,136.88575675014576L217.80262701034545,136.25825693323563L218.03607034047445,139.13922908135862L218.26951367060343,140.2671119918144L218.50295700073244,138.38545550761916L218.73640033086141,139.9564106908935L218.9698436609904,141.19109510228023L219.20328699111937,143.9995430019199L219.43673032124838,145.1202022949874L219.67017365137735,143.81030321598172L219.90361698150636,142.42825990963053L220.13706031163534,140.66111163883255L220.37050364176432,142.8475833308032L220.6039469718933,141.7680233795244L220.8373903020223,143.6259215258836L221.07083363215128,140.86493161578653L221.30427696228028,141.52196338689134L221.5377202924093,142.0728374750364L221.77116362253824,138.8310697907775L222.00460695266725,139.79660993782096L222.23805028279622,137.18731021623262L222.47149361292523,133.17300515973832L222.7049369430542,136.8051198911921L222.93838027318318,139.51914481832125L223.17182360331216,138.77662690945587L223.40526693344117,139.13920751850677L223.63871026357015,140.71540904784726L223.87215359369915,141.53699904885607L224.10559692382813,140.22538771514127L224.3390402539571,141.7114578716995L224.5724835840861,141.44740719753753L224.8059269142151,139.54802430128012L225.27281357447308,141.83806184563014L225.50625690460205,144.52009285231216L225.73970023473103,142.1628470321881L225.97314356486,140.61771445634287L226.20658689498902,138.04636697031452L226.440030225118,139.00005763564943L226.673473555247,142.03919250604176L226.90691688537598,142.45961489937702L227.14036021550496,143.3265988842368L227.37380354563393,142.06138163660287L227.60724687576294,142.05408091219857L227.84069020589195,142.60644352717753L228.07413353602092,141.57861884762974L228.3075768661499,143.9516861553796L228.54102019627888,142.33712760661888L228.77446352640789,144.52342186960487L229.00790685653686,141.0094337713296L229.24135018666587,146.11293017933218L229.47479351679485,146.20001791518598L229.70823684692382,147.7661101830105L229.9416801770528,148.1810736758769L230.1751235071818,146.3459118523157L230.4085668373108,148.99264581668115L230.6420101674398,147.61048002998672L230.87545349756877,141.65168884730727L231.10889682769775,142.96196673474546L231.34234015782673,142.9791789040675L231.57578348795573,141.21856847677884L231.8092268180847,139.18959031626142L232.04267014821372,141.11494500472878L232.2761134783427,144.65124617001257L232.50955680847167,141.6011376594355L232.74300013860065,146.07811124174896L232.97644346872966,146.40037346273127L233.20988679885863,147.44597030871785L233.44333012898764,141.0502864050488L233.6767734591166,142.67981370017654L233.9102167892456,141.6749865134104L234.1436601193746,143.80121970650816L234.37710344950358,144.5745534066991L234.61054677963259,147.77555695322968L234.84399010976156,147.42651558368095L235.07743343989054,145.52743841438706L235.31087677001952,145.73903695839175L235.54432010014852,142.32238656102137L235.7777634302775,141.71374535214017L236.0112067604065,147.9868640020556L236.2446500905355,145.2500038191716L236.47809342066446,147.8668865802908L236.71153675079344,147.69179080742742L236.94498008092245,146.43994322072353L237.17842341105143,149.2585298553162L237.41186674118043,148.50667322248538L237.6453100713094,145.26305750709963L237.8787534014384,144.72253526033276L238.11219673156737,145.7648733519394L238.34564006169637,142.7938813819217L238.57908339182535,142.19513057552143L238.81252672195436,143.04356165219764L239.04597005208336,146.44867647343528L239.2794133822123,146.50101269634757L239.51285671234132,140.4251003202927L239.7463000424703,142.17224097830848L239.9797433725993,143.34755193104027L240.21318670272828,144.46785233324573L240.44663003285726,143.74936141673214L240.68007336298623,141.2243946057766L240.91351669311524,145.47811283005532L241.14696002324422,144.9838718827561L241.38040335337323,143.3754441509244L241.6138466835022,144.20020913658124L241.84729001363118,143.54382253395073L242.08073334376016,143.26985684815975L242.31417667388916,147.4407088362213L242.54762000401814,147.27338894385312L242.78106333414715,146.64355927573573L243.01450666427613,146.92087292353472L243.2479499944051,145.72636776733495L243.48139332453408,142.72588314514218L243.7148366546631,145.77861256301915L243.94827998479207,143.24808686077904L244.18172331492107,144.82098056495374L244.41516664505005,145.39053189289683L244.64860997517903,140.0345698185689L244.882053305308,142.94355650829837L245.115496635437,141.08283794932106L245.34893996556602,144.29075259335366L245.582383295695,144.98350970725733L245.81582662582397,145.30301872718644L246.04926995595295,144.29810243504232L246.28271328608196,144.87700576339356L246.51615661621094,144.95281293603296L246.74959994633994,144.86700604088617L246.98304327646892,144.6907770116777L247.2164866065979,146.87120235202616L247.44992993672687,147.74298733376207L247.68337326685588,148.20519177617277L247.91681659698486,150.3865023261407L248.15025992711386,149.59760808742635L248.38370325724284,149.88360992310402L248.61714658737182,147.37961354755137L248.8505899175008,146.7268250972198L249.0840332476298,145.8819717139105L249.31747657775878,146.9361671286881L249.5509199078878,145.58641461360813L249.78436323801677,145.34771798508385L250.01780656814574,146.48014202151904L250.25124989827472,141.50084123631842L250.48469322840373,146.70746109021027L250.7181365585327,147.33958014686297L250.9515798886617,151.59869567417738L251.18502321879066,146.52774268069052L251.41846654891967,145.55496534870974L251.65190987904867,144.494613330167L251.88535320917765,141.76183334386437L252.11879653930666,140.31882005331568L252.35223986943564,143.23214759229214L252.5856831995646,141.28962020515553L252.8191265296936,141.39631913923716L253.0525698598226,142.82466678871808L253.28601318995157,141.90088085326013L253.51945652008058,145.52843807692798L253.75289985020956,145.70422530266927L253.98634318033854,143.73095904405884L254.21978651046751,141.4368485702036L254.45322984059652,145.98595134335505L254.6866731707255,148.01606999348255L254.9201165008545,149.9575951821247L255.15355983098348,148.3977698854589L255.38700316111246,147.970312817811L255.62044649124144,145.7110172271246L255.85388982137044,143.54598781582797L256.0873331514994,144.16548604200534L256.3207764816284,145.18586671370423L256.55421981175743,144.2249321795592L256.78766314188636,147.38259549242792" data-darkreader-inline-stroke="" data-darkreader-inline-fill="" fill="none"></path></g></g></g></g><g opacity="0.2"><g><g><g><path style="fill: none; --darkreader-inline-stroke:#cc8068; --darkreader-inline-fill:none;" stroke="rgb(255, 112, 67)" stroke-width="2px" d="M24.5115496635437,-1.3832951545715275L24.74499299367269,3.567504787445074L24.978436323801677,8.0266679763794L25.211879653930662,12.713582897186285L25.44532298405965,15.380393886566168L25.67876631418864,18.083296680450445L25.912209644317628,21.023036384582525L26.145652974446616,23.629486942291265L26.3790963045756,25.524576330184942L26.61253963470459,27.82947363853455L26.845982964833578,29.07063760757447L27.079426294962566,30.908415699005133L27.312869625091555,31.840766572952276L27.54631295522054,28.185060882568365L27.779756285349528,30.934965991973883L28.013199615478516,32.54381003379822L28.2466429456075,33.1307996749878L28.480086275736493,34.10820307731629L28.713529605865478,34.766588115692144L28.946972935994467,35.779813671112066L29.180416266123455,35.16052808761597L29.41385959625244,34.64082684516907L29.64730292638143,36.30806078910828L29.88074625651042,36.494618082046514L30.114189586639405,35.916049861907965L30.347632916768394,36.36325635910035L30.58107624689738,35.08093943595887L30.814519577026367,36.17165865898133L31.047962907155355,36.06386032104493L31.28140623728434,36.21210637092591L31.514849567413332,36.81664409637452L31.748292897542317,36.9002567768097L31.981736227671306,37.08457388877869L32.2151795578003,38.304891729354864L32.44862288792928,36.70146145820618L32.68206621805827,37.158831739425665L32.91550954818725,37.120313072204596L33.148952878316244,36.5830222606659L33.38239620844523,37.24476757049561L33.61583953857422,36.847114706039434L33.849282868703206,36.742946290969854L34.0827261988322,36.41444864273072L34.31616952896118,37.322987222671514L34.54961285909017,36.871528530120855L34.78305618921915,37.5040062904358L35.016499519348145,37.70719900131226L35.24994284947713,36.58878865242005L35.48338617960612,37.652916097641L35.716829509735106,38.05820217132569L35.95027283986409,38.27568640708924L36.18371616999308,37.963367843627935L36.41715950012207,37.192164802551275L36.65060283025106,37.317241573333746L36.884046160380045,37.56233396530152L37.11748949050904,38.03571739196778L37.35093282063802,37.81673970222474L37.58437615076701,37.490980052948004L37.817819480896,38.40796079635621L38.05126281102498,37.82696571350098L38.28470614115397,37.251363658905035L38.51814947128296,37.06455745697022L38.751592801411945,37.68965091705323L38.98503613154093,37.729953432083136L39.21847946166992,39.2405613899231L39.451922791798914,38.40547170639039L39.6853661219279,37.24621953964234L39.918809452056884,38.82048597335816L40.152252782185876,39.56005682945252L40.38569611231486,38.4408582687378L40.619139442443846,39.482148313522345L40.85258277257284,37.94611015319825L41.08602610270182,38.16846885681153L41.31946943283081,38.78690400123597L41.5529127629598,39.32732691764832L41.786356093088784,39.499903821945196L42.01979942321777,37.30149807929993L42.25324275334677,40.076771163940435L42.48668608347575,39.19872393608094L42.72012941360474,39.20764317512513L42.95357274373372,40.127486371994024L43.187016073862715,38.19445910453797L43.4204594039917,40.83743705749512L43.653902734120685,38.92407360076905L43.88734606424968,40.4928225517273L44.12078939437866,40.84229078292847L44.354232724507646,38.77667798995972L44.58767605463664,38.38018670082093L44.82111938476562,38.645191812515264L45.05456271489461,38.93245353698731L45.28800604502359,38.71131863594056L45.52144937515259,40.08521332740784L45.75489270528158,39.81527152061463L45.98833603541056,38.09410729408265L46.221779365539554,38.64616670608521L46.45522269566854,39.58075776100159L46.688666025797524,39.347716712951666L46.922109355926516,39.423302078247076L47.1555526860555,41.17568364143372L47.388996016184485,40.263183259963995L47.62243934631348,39.01863827705384L47.85588267644246,39.16043343544007L48.08932600657145,39.60691394805909L48.32276933670044,41.15701546669007L48.55621266682943,39.23363342285157L48.789655996958416,40.35181560516358L49.0230993270874,41.46638860702515L49.25654265721639,39.59832658767701L49.48998598734538,39.562131071090704L49.72342931747436,41.612726354599005L49.956872647603355,38.92932143211365L50.19031597773234,40.90545144081116L50.423759307861324,39.02915468215943L50.657202637990316,40.401016616821295L50.8906459681193,38.35193552970887L51.12408929824829,39.7071620464325L51.35753262837728,37.87664380073548L51.59097595850627,41.337059640884405L51.824419288635255,39.84016242027283L52.05786261876424,39.95026316642762L52.29130594889323,41.2674066066742L52.52474927902222,42.47152462005616L52.7581926091512,40.73368349075318L52.991635939280194,41.799947404861456L53.22507926940918,41.10990943908692L53.45852259953816,41.21239771842957L53.691965929667155,41.23249711990357L53.92540925979614,41.42409482002259L54.15885258992513,41.272986316680914L54.39229592005412,40.54872336387635L54.62573925018311,40.763013267517096L54.859182580312094,40.24275197982789L55.09262591044108,41.49034609794617L55.32606924057007,41.31430521011353L55.559512570699056,41.54892268180848L55.79295590082804,38.325240039825445L56.02639923095703,42.046699190139776L56.25984256108602,40.09960856437684L56.493285891215,43.4953495502472L56.726729221343994,40.898585700988775L56.960172551472986,40.59278025627137L57.19361588160197,41.72002687454224L57.427059211730956,41.79330983161927L57.66050254185995,42.282685661315924L57.89394587198893,43.093776369094854L58.12738920211792,42.7029477596283L58.36083253224691,43.122919464111334L58.594275862375895,42.868949317932135L58.82771919250488,43.78312983512879L59.06116252263387,39.99842705726624L59.29460585276286,42.18048777580262L59.52804918289184,41.48267140388489L59.76149251302084,40.82326998710633L59.994935843149825,42.36692061424256L60.22837917327881,46.075830602645894L60.461822503407795,45.3145839214325L60.69526583353679,43.02318992614747L60.92870916366577,43.137501382827764L61.16215249379476,44.768705749511724L61.39559582392375,42.73204936981202L61.629039154052734,42.464368486404425L61.86248248418172,41.96345987319947L62.09592581431071,42.7135678768158L62.329369144439696,45.01203503608704L62.56281247456868,45.53679742813111L62.796255804697665,43.60652890205384L63.029699134826664,42.2650131225586L63.26314246495565,43.25616874694825L63.496585795084634,45.17324509620667L63.730029125213626,41.55636920928956L63.96347245534261,42.261238002777105L64.19691578547159,43.00898137092591L64.4303591156006,44.192170286178595L64.66380244572957,45.021576547622686L64.89724577585856,43.40918555259705L65.13068910598756,43.68966450691224L65.36413243611653,43.21358456611634L65.59757576624553,45.625989818573004L65.8310190963745,45.01348700523377L66.0644624265035,46.573627853393575L66.29790575663249,45.732543611526495L66.53134908676147,49.1091808319092L66.76479241689046,45.10705604553223L66.99823574701945,45.140534305572515L67.23167907714844,44.61929812431336L67.46512240727743,48.58900251388552L67.69856573740641,44.04421463012696L67.9320090675354,47.45663251876833L68.1654523976644,44.84126272201539L68.39889572779337,47.33879485130312L68.63233905792237,48.06289186477663L68.86578238805134,42.457772397995L69.09922571818034,46.71799507141115L69.33266904830933,45.73227396011353L69.5661123784383,49.02426137924196L69.7995557085673,48.65838589668276L70.03299903869629,45.05470218658448L70.26644236882528,45.85359635353089L70.49988569895426,47.128010416030904L70.73332902908325,44.24838223457337L70.96677235921224,44.54080882072449L71.20021568934122,47.90433683395388L71.43365901947021,46.78096904754641L71.6671023495992,48.61671438217165L71.90054567972818,50.99311079978945L72.13398900985717,48.931978368759175L72.36743233998617,47.84901680946352L72.60087567011514,47.6899639606476L72.83431900024414,47.80155816078188L73.06776233037311,51.060295486450215L73.30120566050212,47.2762357234955L73.53464899063111,46.62805595397951L73.76809232076009,46.95383634567263L74.00153565088908,47.7816661834717L74.23497898101807,51.2481595516205L74.46842231114705,48.29730191230776L74.70186564127604,47.71107974052431L74.93530897140504,47.8806697368622L75.16875230153401,50.86442484855654L75.402195631663,48.62723078727724L75.635638961792,47.12873640060427L75.86908229192098,49.67824902534487L76.10252562204997,49.30388989448549L76.33596895217896,49.648939990997334L76.56941228230794,50.18834652900698L76.80285561243693,47.70533409118654L77.03629894256592,50.15105166435244L77.2697422726949,47.208470249176045L77.50318560282389,48.92251982688906L77.73662893295288,49.29322829246523L77.97007226308186,50.31672134399416L78.20351559321085,48.17629065513613L78.43695892333984,51.32893052101137L78.67040225346882,52.94702568054201L78.90384558359783,50.303321743011495L79.1372889137268,48.28361191749575L79.3707322438558,47.18345489501955L79.60417557398479,47.266549015045186L79.83761890411377,49.638651752471944L80.07106223424276,47.98604121208193L80.30450556437175,52.7012902736664L80.53794889450073,54.25079026222231L80.77139222462972,51.18904366493227L81.00483555475871,53.15397276878359L81.23827888488769,53.81750192642214L81.47172221501668,50.883715295791646L81.70516554514568,50.082435750961324L81.93860887527465,51.343989515304585L82.17205220540365,53.290395641326924L82.40549553553264,55.24534764289858L82.63893886566161,54.14122881889345L82.8723821957906,56.07353010177614L83.1058255259196,51.27873387336733L83.33926885604858,53.953696632385274L83.57271218617757,53.50617899894716L83.80615551630656,52.93567957878115L84.03959884643554,51.268300437927266L84.27304217656453,51.02163162231447L84.50648550669354,48.13397612571718L84.73992883682251,56.79646553993227L84.9733721669515,52.76133956909182L85.20681549708048,51.26211919784548L85.44025882720948,50.746649408340474L85.67370215733847,49.74163784980776L85.90714548746745,53.96755256652834L86.14058881759644,54.554874086380025L86.37403214772543,55.27812066078188L86.60747547785441,57.50291075706484L86.8409188079834,53.31157364845278L87.07436213811239,52.60826053619387L87.30780546824137,57.78073468208315L87.54124879837036,59.60218849182131L87.77469212849935,55.75436654090883L88.00813545862833,56.30569996833803L88.24157878875732,54.45705285072329L88.47502211888632,57.53956260681154L88.70846544901529,57.74269309043886L88.94190877914428,54.32600226402285L89.17535210927328,52.77625336647036L89.40879543940225,56.14944734573366L89.64223876953125,56.80606927871706L89.87568209966024,56.40240111351015L90.10912542978922,56.59227719306948L90.34256875991821,61.34592046737673L90.57601209004719,57.34325637817385L90.80945542017619,59.654231214523335L91.04289875030518,54.693163776397725L91.27634208043416,57.80425658226015L91.50978541056315,60.02836217880251L91.74322874069215,60.11068882942202L91.97667207082112,56.19989290237429L92.21011540095012,55.46722927093508L92.44355873107911,63.28332438468935L92.67700206120809,58.37203874588015L92.91044539133708,52.092375898361226L93.14388872146607,56.082822704315205L93.37733205159505,56.17506422996523L93.61077538172404,58.590394163131734L93.84421871185303,56.52001061439516L94.07766204198201,56.63714303970339L94.311105372111,58.92781105041506L94.54454870224,55.952311420440694L94.77799203236897,57.755262994766255L95.01143536249796,63.241673612594624L95.24487869262695,59.02579822540285L95.47832202275593,63.38195457458498L95.71176535288492,63.25843348503115L95.94520868301392,62.84686245918276L96.1786520131429,55.851316595077535L96.4120953432719,63.73086276054384L96.64553867340088,55.2408672809601L96.87898200352987,59.02633752822878L97.11242533365886,64.66985120773317L97.34586866378784,62.92757120132448L97.57931199391683,63.60902180671694L97.81275532404582,64.33560791015627L98.0461986541748,62.250517988204976L98.2796419843038,63.56874003410341L98.51308531443279,59.455954456329366L98.74652864456176,62.1502284049988L98.97997197469076,67.66798081398012L99.21341530481975,60.9205764770508L99.44685863494873,58.218482637405415L99.68030196507772,57.5863160133362L99.91374529520671,60.29396882057192L100.14718862533569,59.9934319496155L100.38063195546468,63.79983129501345L100.61407528559367,60.72360649108889L100.84751861572265,63.317528629303L101.08096194585164,65.83256735801699L101.31440527598063,61.621898317337056L101.54784860610961,64.0363778114319L101.7812919362386,61.57599534988405L102.01473526636761,62.9878486633301L102.24817859649659,64.73937978744509L102.48162192662558,66.50976576805117L102.71506525675456,65.40720262527468L102.94850858688355,71.56975378990175L103.18195191701254,65.40313711166384L103.41539524714152,61.929632806777974L103.64883857727051,66.42250242233278L103.8822819073995,64.95765223503115L104.11572523752848,61.695202016830464L104.34916856765747,62.8176986217499L104.58261189778646,63.82061519622805L104.81605522791544,63.66585602760317L105.04949855804443,68.20881857872011L105.28294188817343,70.00689568519594L105.5163852183024,69.5033527851105L105.7498285484314,68.27896943092348L105.98327187856039,65.28556909561159L106.21671520868937,64.86872949600222L106.45015853881836,60.524396324157735L106.68360186894735,68.37554612159731L106.91704519907633,67.29833021163942L107.15048852920532,66.22225513458254L107.38393185933431,69.53689327239992L107.61737518946329,68.38851013183596L107.85081851959228,65.6532699108124L108.08426184972126,68.11775937080385L108.31770517985026,68.79904403686525L108.55114850997926,65.29699816703798L108.78459184010823,66.25760021209719L109.01803517023723,69.50936808586123L109.25147850036622,63.66311802864077L109.4849218304952,71.56087603569033L109.71836516062419,70.88380208015444L109.95180849075318,69.5309816837311L110.18525182088216,66.76989641189577L110.41869515101115,72.04882063865664L110.65213848114014,66.97371139526369L110.88558181126912,66.40037026405336L111.11902514139811,69.34108486175539L111.3524684715271,74.87134494781496L111.58591180165608,70.95849552154543L111.81935513178507,66.71258511543276L112.05279846191407,73.7313002586365L112.28624179204304,74.47574558258059L112.51968512217204,75.16930975914003L112.75312845230103,66.83359637260439L112.98657178243,66.19659676551821L113.220015112559,67.04759588241579L113.45345844268799,67.70840778350832L113.68690177281697,70.73520340919497L113.92034510294597,74.28201141357424L114.15378843307495,70.53491463661196L114.38723176320394,68.73347725868227L114.62067509333293,75.02768054008486L114.85411842346191,68.82177772521975L115.0875617535909,69.91988124847414L115.3210050837199,76.12501659393313L115.55444841384887,72.65769352912905L115.78789174397787,72.10849657058718L116.02133507410686,70.16609373092653L116.25477840423584,79.7967561721802L116.48822173436483,74.18383755683901L116.72166506449382,78.35530343055727L116.9551083946228,74.28099503517153L117.18855172475179,72.14197483062746L117.42199505488078,73.23211326599123L117.65543838500976,72.6985146045685L117.88888171513875,75.22709813117983L118.12232504526774,78.1048387527466L118.35576837539672,74.97696533203127L118.58921170552571,72.51983942985537L118.8226550356547,80.25290265083315L119.05609836578368,74.50607099533083L119.28954169591267,76.54830708503725L119.52298502604168,75.83383455276491L119.75642835617066,74.87265172004702L119.98987168629965,79.78012075424196L120.22331501642863,72.26292386054995L120.45675834655762,75.33875455856325L120.69020167668661,74.1041451931L120.92364500681559,73.61792221069338L121.15708833694458,86.29182901382448L121.39053166707357,79.00553669929506L121.62397499720255,78.69587316513064L121.85741832733154,73.47712268829348L122.09086165746054,75.76200356483461L122.32430498758951,76.01497807502749L122.5577483177185,83.27920045852663L122.7911916478475,82.13407387733461L123.02463497797648,74.76910557746889L123.25807830810547,79.65946211814882L123.49152163823446,74.2819491863251L123.72496496836344,82.83848633766176L123.95840829849243,75.17617549896242L124.19185162862142,75.25937333106997L124.4252949587504,83.15951671600344L124.65873828887939,79.72129526138308L124.89218161900838,78.41759290695192L125.12562494913736,75.0194043159485L125.35906827926635,84.18083181381228L125.59251160939533,75.85905733108522L125.82595493952434,78.0975374221802L126.05939826965333,83.60485639572146L126.2928415997823,86.58284511566164L126.5262849299113,80.49353542327883L126.75972826004029,85.01129593849184L126.99317159016927,77.30889000892641L127.22661492029826,80.082918548584L127.46005825042725,79.42507281303408L127.69350158055623,80.35344114303591L127.92694491068522,83.83337559700014L128.1603882408142,78.83030476570131L128.39383157094318,80.17669501304628L128.62727490107218,85.7957533836365L128.8607182312012,80.71734609603884L129.09416156133017,80.95300068855288L129.32760489145915,82.71440520286562L129.56104822158815,83.34719409942629L129.79449155171713,81.61943378448488L130.0279348818461,89.8411053657532L130.2613782119751,87.2044538497925L130.4948215421041,85.36487116813662L130.72826487223307,87.09748520851137L130.96170820236208,93.36837401390078L131.19515153249105,87.81907238960268L131.42859486262003,80.0380527019501L131.662038192749,83.5034052371979L131.89548152287801,89.27618565559389L132.128924853007,85.44184627532961L132.36236818313597,91.009090089798L132.59581151326498,86.27618923187258L132.82925484339395,90.65528669357302L133.06269817352293,80.5435868740082L133.29614150365194,88.38590040206911L133.52958483378092,85.96318616867067L133.7630281639099,87.08315219879152L133.9964714940389,80.47565546035769L134.2299148241679,95.07906332015993L134.46335815429688,87.68997159004213L134.69680148442586,86.26038351058962L134.93024481455487,87.3578232765198L135.16368814468385,86.99431242942812L135.39713147481282,81.36600294113161L135.63057480494183,85.3003622531891L135.8640181350708,81.6468137741089L136.09746146519979,87.91780629158022L136.3309047953288,89.28191056251528L136.56434812545777,94.1953534126282L136.79779145558675,92.69605007171633L137.03123478571575,87.77847948074343L137.26467811584473,90.7813798427582L137.4981214459737,93.14941706657412L137.7315647761027,94.43324818611147L137.9650081062317,102.65560426712038L138.19845143636067,88.85729255676272L138.43189476648965,87.1641513347626L138.66533809661865,90.9619218349457L138.89878142674763,92.76240506172182L139.1322247568766,93.7615257740021L139.36566808700562,97.83738985061647L139.5991114171346,101.088369512558L139.83255474726357,92.36842360496523L140.06599807739258,98.40900936126711L140.29944140752158,95.86217250823977L140.53288473765056,94.81573834419252L140.76632806777954,92.80461587905886L140.99977139790852,97.65767755508425L141.23321472803752,90.84039201736452L141.4666580581665,90.23915233612063L141.7001013882955,94.81785407066347L141.93354471842449,95.34228458404543L142.16698804855346,90.50585832595827L142.40043137868244,97.98312606811525L142.63387470881145,98.4206665992737L142.86731803894043,96.73329176902773L143.10076136906943,94.21982946395876L143.3342046991984,96.45602788925173L143.5676480293274,100.58961811065676L143.80109135945636,92.16510643959047L144.03453468958537,94.97105755805971L144.26797801971435,94.07486071586611L144.50142134984335,101.98440041542055L144.73486467997233,97.08738555908205L144.9683080101013,102.293358707428L145.2017513402303,98.7372166156769L145.4351946703593,98.07787742614748L145.66863800048827,91.37191643714907L145.90208133061728,91.12298669815065L146.13552466074623,96.04914464950564L146.36896799087523,94.9585083961487L146.60241132100424,92.25295057296755L146.83585465113322,97.96472754478457L147.06929798126222,102.23389019966127L147.3027413113912,99.21815028190615L147.53618464152018,91.19861354827883L147.76962797164916,102.74400844573977L148.00307130177816,95.07275762557985L148.23651463190714,95.90697612762453L148.46995796203615,97.07494010925295L148.70340129216513,99.44463672637941L148.9368446222941,97.72017445564272L149.17028795242308,100.4718426704407L149.4037312825521,103.2745164871216L149.63717461268106,94.91947116851809L149.87061794281007,99.50590982437136L150.10406127293905,89.7055536746979L150.33750460306803,100.95908203125002L150.570947933197,99.41812791824343L150.804391263326,96.9279178619385L151.037834593455,100.48036780357363L151.271277923584,98.45580425262453L151.504721253713,100.97855916023256L151.73816458384195,99.54214682579043L151.97160791397096,96.55455436706545L152.20505124409993,99.34384932518007L152.43849457422894,103.61568775177004L152.67193790435792,100.94367041587832L152.9053812344869,95.22210302352907L153.13882456461587,107.65579190254213L153.37226789474488,109.73117437362673L153.60571122487386,110.09252800941468L153.83915455500286,109.54924263954165L154.07259788513184,106.8465265274048L154.30604121526082,101.31423368453981L154.5394845453898,106.25030651092531L154.7729278755188,99.68898239135744L155.00637120564778,106.15594925880434L155.2398145357768,101.2830785751343L155.47325786590577,105.63002529144289L155.70670119603474,104.36533942222597L155.94014452616372,103.33323826789858L156.17358785629273,109.59825696945192L156.4070311864217,108.82184758186342L156.6404745165507,99.40074577331545L156.8739178466797,101.1942388057709L157.10736117680867,100.21036376953127L157.34080450693764,105.26246967315676L157.57424783706665,108.13062729835512L157.80769116719566,97.00037112236025L158.04113449732463,111.39687337875367L158.2745778274536,112.23235716819764L158.5080211575826,104.44862022399904L158.7414644877116,109.84237446784975L158.97490781784057,107.84857192039492L159.20835114796958,113.64186658859253L159.44179447809856,99.60640683174135L159.67523780822754,104.28826060295107L159.9086811383565,110.5268949508667L160.14212446848552,110.29742159843445L160.3755677986145,110.98843445777894L160.6090111287435,116.7509681224823L160.84245445887248,108.90869607925417L161.07589778900146,118.24321904182435L161.30934111913044,102.77369084358217L161.54278444925944,115.01179947853089L161.77622777938842,115.84454526901246L162.00967110951743,110.35844578742982L162.2431144396464,112.93562879562378L162.47655776977538,113.21204223632813L162.71000109990436,109.17689552307131L162.94344443003337,114.83799877166749L163.17688776016234,108.1724440097809L163.41033109029135,109.64442958831789L163.6437744204203,111.61821570396424L163.8772177505493,107.99804177284243L164.1106610806783,111.62535109519959L164.3441044108073,103.20461454391481L164.5775477409363,106.69676628112795L164.81099107106527,117.01209440231324L165.04443440119425,106.64150848388674L165.27787773132323,107.94346847534182L165.51132106145224,112.88261117935181L165.7447643915812,117.49215688705445L165.97820772171022,119.13335909843445L166.2116510518392,113.25425305366517L166.44509438196818,107.67333998680117L166.67853771209715,114.59809198379517L166.91198104222616,107.16488113403322L167.14542437235514,111.00413646697999L167.37886770248414,111.27847566604615L167.61231103261312,118.62253561019898L167.8457543627421,111.30996265411378L168.07919769287108,118.44319667816163L168.31264102300008,115.66553821563721L168.54608435312906,119.31446113586426L168.77952768325807,121.74538936614991L169.01297101338707,111.49403085708619L169.24641434351602,117.98698797225953L169.47985767364503,111.69869627952576L169.713301003774,106.70535364151003L169.946744333903,108.08916320800783L170.180187664032,113.604571723938L170.41363099416097,114.27635636329651L170.64707432428995,127.2132770061493L170.88051765441895,116.75764718055726L171.11396098454793,125.20862617492676L171.34740431467694,120.49134435653687L171.5808476448059,110.30327095985413L171.8142909749349,115.16601934432984L172.04773430506387,114.65478100776673L172.28117763519288,119.15296068191529L172.51462096532185,115.98661007881165L172.74806429545086,113.81614437103272L172.98150762557984,111.63694610595704L173.21495095570882,120.37908639907837L173.4483942858378,117.51094951629639L173.6818376159668,118.02065291404725L173.91528094609578,129.3723551273346L174.14872427622478,118.18733897209168L174.38216760635376,129.58243432044983L174.61561093648274,123.72944297790528L174.84905426661172,121.44707193374634L175.08249759674072,123.1589020729065L175.31594092686973,123.96308555603028L175.5493842569987,120.30366697311402L175.78282758712768,121.80713953971863L176.01627091725666,121.47445192337037L176.24971424738567,122.91557278633118L176.48315757751465,116.43626418113709L176.71660090764365,114.95826330184937L176.95004423777263,111.52840104103089L177.1834875679016,113.72043886184693L177.41693089803059,122.91345705986024L177.6503742281596,119.85565152168274L177.88381755828857,123.13094129562378L178.11726088841758,121.02328362464905L178.35070421854655,123.73325958251954L178.58414754867553,119.43686213493348L178.8175908788045,118.22469606399537L179.05103420893352,121.04514613151551L179.2844775390625,119.29398837089539L179.5179208691915,117.29975023269654L179.75136419932048,120.86493601799012L179.98480752944945,126.27067937850953L180.21825085957843,119.49852933883668L180.45169418970744,120.3819073677063L180.68513751983642,125.5536762714386L180.91858084996542,131.77231492996216L181.15202418009437,120.75427522659302L181.38546751022338,120.87777557373047L181.61891084035238,124.60012664794922L181.85235417048136,118.96461954116822L182.08579750061037,128.12391057014466L182.31924083073935,125.88588681221009L182.55268416086832,128.59793701171876L182.7861274909973,123.82535591125489L183.0195708211263,120.77665629386902L183.2530141512553,120.03289546966553L183.4864574813843,125.73040165901185L183.71990081151327,129.49817862510682L183.95334414164225,116.6423815727234L184.18678747177123,128.11505355834962L184.42023080190023,127.61134471893311L184.6536741320292,123.26278009414673L184.88711746215822,129.27544655799866L185.1205607922872,118.9701162815094L185.35400412241617,119.89790382385254L185.58744745254515,123.45051970481873L185.82089078267416,123.43473472595215L186.05433411280313,128.20327105522156L186.28777744293214,124.12612094879151L186.52122077306115,125.6636525630951L186.7546641031901,124.60892143249512L186.9881074333191,126.08984699249268L187.22155076344808,132.51611723899842L187.45499409357708,128.3265639781952L187.68843742370606,132.64980211257935L187.92188075383504,129.1920413017273L188.15532408396402,127.67492022514344L188.38876741409302,129.25897707939149L188.622210744222,120.95365133285523L188.855654074351,129.38019576072693L189.08909740448,134.78855266571045L189.32254073460896,131.52875747680665L189.55598406473794,127.56266226768494L189.78942739486695,120.548987531662L190.02287072499593,127.38581242561341L190.25631405512493,120.82405271530152L190.4897573852539,126.11405339241028L190.7232007153829,127.83164992332459L190.95664404551187,125.54753651618958L191.19008737564087,130.690846824646L191.42353070576985,130.6680094242096L191.65697403589886,130.77358832359315L191.89041736602783,119.17548694610596L192.1238606961568,126.36346020698548L192.3573040262858,125.2164668083191L192.5907473564148,125.48920884132386L192.8241906865438,141.4908215045929L193.05763401667278,126.8126787185669L193.29107734680176,126.93111791610718L193.52452067693073,123.85300555229188L193.75796400705974,131.17702832221985L193.99140733718872,125.69032731056214L194.22485066731772,133.3791054725647L194.4582939974467,132.9894799232483L194.69173732757568,138.47960343360901L194.92518065770466,124.75789346694947L195.15862398783366,126.92875328063965L195.39206731796264,130.26527466773987L195.62551064809165,134.4251455307007L195.85895397822063,133.66228094100953L196.0923973083496,137.39102067947388L196.32584063847858,135.27985754013062L196.5592839686076,126.07076396942139L196.79272729873657,127.74189748764039L197.02617062886557,130.41949453353882L197.25961395899455,138.74319806098939L197.49305728912353,139.61104001998902L197.7265006192525,127.3899401664734L197.9599439493815,131.53813304901124L198.1933872795105,137.83843460083008L198.4268306096395,139.38306012153626L198.66027393976844,135.0228175163269L198.89371726989745,131.65080585479737L199.12716060002646,135.41356315612794L199.36060393015543,130.65460982322693L199.59404726028444,138.2056790828705L199.82749059041342,136.2748505115509L200.0609339205424,139.78206124305726L200.29437725067137,130.40130343437195L200.52782058080038,133.10669531822205L200.76126391092936,132.96519055366517L200.99470724105836,127.3829707145691L201.22815057118734,137.47716393470765L201.46159390131632,130.4824477672577L201.6950372314453,132.64625515937806L201.9284805615743,134.51245036125184L202.16192389170328,141.18012084960938L202.3953672218323,139.7791573047638L202.62881055196127,135.333767080307L202.86225388209024,138.26236810684205L203.09569721221922,138.5689202785492L203.32914054234823,134.5822693347931L203.5625838724772,144.54012265205384L203.7960272026062,139.10959210395814L204.02947053273522,133.26031365394593L204.26291386286417,129.386501455307L204.49635719299317,131.91153802871705L204.72980052312215,139.81311264038087L204.96324385325116,126.47258605957032L205.19668718338013,135.4187487602234L205.4301305135091,133.54604043960572L205.6635738436381,129.87566986083985L205.8970171737671,146.42465415000916L206.13046050389607,146.74989523887635L206.36390383402508,138.8280138015747L206.59734716415406,139.04860939979554L206.83079049428304,132.24702587127686L207.064233824412,136.18308606147767L207.29767715454102,135.57002320289612L207.53112048467,144.03010811805726L207.764563814799,137.34837427139283L207.99800714492798,136.24043884277344L208.23145047505696,133.55168237686158L208.46489380518594,139.91176357269288L208.69833713531494,137.80703058242798L208.93178046544392,135.12233963012696L209.16522379557293,133.30370678901673L209.3986671257019,133.63413348197938L209.63211045583088,132.81231894493104L209.86555378595986,136.59521713256837L210.09899711608887,137.31412854194642L210.33244044621787,143.92662420272828L210.56588377634685,137.42472710609437L210.79932710647583,136.47831287384034L211.0327704366048,140.47089614868165L211.2662137667338,138.2906400203705L211.4996570968628,133.96045317649842L211.7331004269918,140.94033851623536L211.96654375712077,139.48073616027833L212.19998708724975,140.40508046150208L212.43343041737873,142.40761556625367L212.66687374750774,131.97465720176697L212.9003170776367,144.8755690097809L213.13376040776572,140.0808557510376L213.3672037378947,139.52091422080994L213.60064706802368,133.34338703155518L213.83409039815265,138.7984558582306L214.06753372828166,140.20947947502137L214.30097705841064,139.8371738433838L214.53442038853964,144.57403650283814L214.76786371866862,137.6077581882477L215.0013070487976,133.23388781547547L215.23475037892658,141.07541313171387L215.46819370905558,147.10469427108765L215.70163703918456,144.86754169464112L215.93508036931357,139.8839894771576L216.16852369944252,141.15357055664063L216.40196702957152,139.51956596374512L216.63541035970053,135.38006415367127L216.8688536898295,138.6951171398163L217.1022970199585,146.21306076049805L217.3357403500875,129.7751313686371L217.56918368021647,136.84543290138245L217.80262701034545,135.3170072078705L218.03607034047445,143.4606873035431L218.26951367060343,141.95893635749817L218.50295700073244,135.5629707813263L218.73640033086141,142.31284346580506L218.9698436609904,143.04312171936036L219.20328699111937,148.2122148513794L219.43673032124838,146.80119123458863L219.67017365137735,141.84545459747315L219.90361698150636,140.35519495010377L220.13706031163534,138.0103892326355L220.37050364176432,146.12729086875916L220.6039469718933,140.1486834526062L220.8373903020223,146.41276874542237L221.07083363215128,136.72344675064087L221.30427696228028,142.5075110435486L221.5377202924093,142.89914860725403L221.77116362253824,133.96841826438904L222.00460695266725,141.24492015838624L222.23805028279622,133.2733606338501L222.47149361292523,127.15154757499695L222.7049369430542,142.2532919883728L222.93838027318318,143.5901822090149L223.17182360331216,137.66285004615784L223.40526693344117,139.68307843208314L223.63871026357015,143.07971134185792L223.87215359369915,142.76938405036927L224.10559692382813,138.2579707145691L224.3390402539571,143.94056310653687L224.5724835840861,141.05133118629456L224.8059269142151,136.69894995689393L225.27281357447308,145.27311816215516L225.50625690460205,148.5431393623352L225.73970023473103,138.62697830200196L225.97314356486,138.30001559257508L226.20658689498902,134.18934574127198L226.440030225118,140.43059363365174L226.673473555247,146.59789481163025L226.90691688537598,143.0902484893799L227.14036021550496,144.6270748615265L227.37380354563393,140.16355576515198L227.60724687576294,142.04312982559205L227.84069020589195,143.434987449646L228.07413353602092,140.0368818283081L228.3075768661499,147.5112871170044L228.54102019627888,139.9152897834778L228.77446352640789,147.80286326408387L229.00790685653686,135.73845162391663L229.24135018666587,153.76817479133607L229.47479351679485,146.33064951896668L229.70823684692382,150.11524858474732L229.9416801770528,148.8035189151764L230.1751235071818,143.59316911697388L230.4085668373108,152.96274676322938L230.6420101674398,145.53723134994507L230.87545349756877,132.71350207328797L231.10889682769775,144.92738356590272L231.34234015782673,143.00499715805054L231.57578348795573,138.57765283584595L231.8092268180847,136.14612307548524L232.04267014821372,144.00297703742982L232.2761134783427,149.95569791793824L232.50955680847167,137.02597489356995L232.74300013860065,152.79357161521912L232.97644346872966,146.88376679420472L233.20988679885863,149.01436557769776L233.44333012898764,131.4567605495453L233.6767734591166,145.12410464286805L233.9102167892456,140.1677457332611L234.1436601193746,146.9905694961548L234.37710344950358,145.73455395698548L234.61054677963259,152.57706227302552L234.84399010976156,146.90295352935792L235.07743343989054,142.67882266044617L235.31087677001952,146.0564347743988L235.54432010014852,137.19741096496583L235.7777634302775,140.80078353881837L236.0112067604065,157.39654197692872L236.2446500905355,141.1447135448456L236.47809342066446,151.7922107219696L236.71153675079344,147.42914714813233L236.94498008092245,144.56217184066773L237.17842341105143,153.4864098072052L237.41186674118043,147.37888827323914L237.6453100713094,140.397633934021L237.8787534014384,143.9117518901825L238.11219673156737,147.32838048934937L238.34564006169637,138.33739342689515L238.57908339182535,141.29700436592103L238.81252672195436,144.31620826721192L239.04597005208336,151.55634870529175L239.2794133822123,146.57951703071595L239.51285671234132,131.31123175621033L239.7463000424703,144.79295196533204L239.9797433725993,145.11051836013795L240.21318670272828,146.14830293655396L240.44663003285726,142.67162504196168L240.68007336298623,137.43694438934327L240.91351669311524,151.8586901664734L241.14696002324422,144.24251046180726L241.38040335337323,140.96280255317689L241.6138466835022,145.43735661506653L241.84729001363118,142.5592426300049L242.08073334376016,142.85890831947327L242.31417667388916,153.6969868183136L242.54762000401814,147.0224091053009L242.78106333414715,145.69881477355958L243.01450666427613,147.33684339523316L243.2479499944051,143.93461003303528L243.48139332453408,138.22515621185303L243.7148366546631,150.3577066898346L243.94827998479207,139.45229830741883L244.18172331492107,147.18032112121583L244.41516664505005,146.2448588848114L244.64860997517903,132.00062670707703L244.882053305308,147.30703654289246L245.115496635437,138.2917601108551L245.34893996556602,149.10262455940247L245.582383295695,146.0226453781128L245.81582662582397,145.78228225708008L246.04926995595295,142.79072799682618L246.28271328608196,145.74536075592042L246.51615661621094,145.06652369499207L246.74959994633994,144.7382956981659L246.98304327646892,144.426433467865L247.2164866065979,150.14184036254883L247.44992993672687,149.05066480636597L247.68337326685588,148.89849843978882L247.91681659698486,153.65846815109253L248.15025992711386,148.41426672935486L248.38370325724284,150.3126126766205L248.61714658737182,143.62361898422242L248.8505899175008,145.74764242172242L249.0840332476298,144.61469163894654L249.31747657775878,148.5174602508545L249.5509199078878,143.56178584098816L249.78436323801677,144.98967304229737L250.01780656814574,148.17877807617188L250.25124989827472,134.03189005851746L250.48469322840373,154.51739087104798L250.7181365585327,148.28775873184205L250.9515798886617,157.98736896514893L251.18502321879066,138.9213131904602L251.41846654891967,144.09579935073853L251.65190987904867,142.9040853023529L251.88535320917765,137.6626633644104L252.11879653930666,138.15430011749268L252.35223986943564,147.60213890075684L252.5856831995646,138.3758291244507L252.8191265296936,141.5563675403595L253.0525698598226,144.96718826293946L253.28601318995157,140.51520195007325L253.51945652008058,150.96977391242982L253.75289985020956,145.96790614128113L253.98634318033854,140.7710596561432L254.21978651046751,137.99568285942078L254.45322984059652,152.80960550308228L254.6866731707255,151.0612479686737L254.9201165008545,152.8698829650879L255.15355983098348,146.0580319404602L255.38700316111246,147.32912721633912L255.62044649124144,142.32207384109498L255.85388982137044,140.29844369888306L256.0873331514994,145.09473338127137L256.3207764816284,146.71643772125245L256.55421981175743,142.78353037834168L256.78766314188636,152.11909046173096" data-darkreader-inline-stroke="" data-darkreader-inline-fill="" fill="none"></path></g></g></g></g></g></g><g transform="translate(49, 174)" clip-path="url(#clip_1)"><clipPath id="clip_1"><rect width="280" height="26"></rect></clipPath><g><g><line x1="0" y1="0" x2="0" y2="5" style="visibility: inherit;" fill="rgb(0, 0, 0)" stroke="rgb(204, 204, 204)" stroke-width="1px"></line><line x1="23.344333012898762" y1="0" x2="23.344333012898762" y2="5" style="visibility: inherit;" fill="rgb(0, 0, 0)" stroke="rgb(204, 204, 204)" stroke-width="1px"></line><line x1="46.688666025797524" y1="0" x2="46.688666025797524" y2="5" style="visibility: inherit;" fill="rgb(0, 0, 0)" stroke="rgb(204, 204, 204)" stroke-width="1px"></line><line x1="70.03299903869629" y1="0" x2="70.03299903869629" y2="5" style="visibility: inherit;" fill="rgb(0, 0, 0)" stroke="rgb(204, 204, 204)" stroke-width="1px"></line><line x1="93.37733205159505" y1="0" x2="93.37733205159505" y2="5" style="visibility: inherit;" fill="rgb(0, 0, 0)" stroke="rgb(204, 204, 204)" stroke-width="1px"></line><line x1="116.72166506449382" y1="0" x2="116.72166506449382" y2="5" style="visibility: inherit;" fill="rgb(0, 0, 0)" stroke="rgb(204, 204, 204)" stroke-width="1px"></line><line x1="140.06599807739258" y1="0" x2="140.06599807739258" y2="5" style="visibility: inherit;" fill="rgb(0, 0, 0)" stroke="rgb(204, 204, 204)" stroke-width="1px"></line><line x1="163.41033109029135" y1="0" x2="163.41033109029135" y2="5" style="visibility: inherit;" fill="rgb(0, 0, 0)" stroke="rgb(204, 204, 204)" stroke-width="1px"></line><line x1="186.7546641031901" y1="0" x2="186.7546641031901" y2="5" style="visibility: inherit;" fill="rgb(0, 0, 0)" stroke="rgb(204, 204, 204)" stroke-width="1px"></line><line x1="210.09899711608887" y1="0" x2="210.09899711608887" y2="5" style="visibility: inherit;" fill="rgb(0, 0, 0)" stroke="rgb(204, 204, 204)" stroke-width="1px"></line><line x1="233.44333012898764" y1="0" x2="233.44333012898764" y2="5" style="visibility: inherit;" fill="rgb(0, 0, 0)" stroke="rgb(204, 204, 204)" stroke-width="1px"></line><line x1="256.78766314188636" y1="0" x2="256.78766314188636" y2="5" style="visibility: inherit;" fill="rgb(0, 0, 0)" stroke="rgb(204, 204, 204)" stroke-width="1px"></line><line x1="280.13199615478516" y1="0" x2="280.13199615478516" y2="5" style="visibility: inherit;" fill="rgb(0, 0, 0)" stroke="rgb(204, 204, 204)" stroke-width="1px"></line></g><g transform="translate(0, 8)"><text style="text-anchor: middle; visibility: hidden; font-family: &quot;Helvetica Neue&quot;, sans-serif; font-size: 12px; font-weight: 200;" x="0" y="0" dx="0em" dy="0.95em" fill="rgb(50, 49, 63)" stroke="none" stroke-width="1px">-100</text><text style="text-anchor: middle; visibility: inherit; font-family: &quot;Helvetica Neue&quot;, sans-serif; font-size: 12px; font-weight: 200;" x="23.344333012898762" y="0" dx="0em" dy="0.95em" fill="rgb(50, 49, 63)" stroke="none" stroke-width="1px">0</text><text style="text-anchor: middle; visibility: hidden; font-family: &quot;Helvetica Neue&quot;, sans-serif; font-size: 12px; font-weight: 200;" x="46.688666025797524" y="0" dx="0em" dy="0.95em" fill="rgb(50, 49, 63)" stroke="none" stroke-width="1px">100</text><text style="text-anchor: middle; visibility: inherit; font-family: &quot;Helvetica Neue&quot;, sans-serif; font-size: 12px; font-weight: 200;" x="70.03299903869629" y="0" dx="0em" dy="0.95em" fill="rgb(50, 49, 63)" stroke="none" stroke-width="1px">200</text><text style="text-anchor: middle; visibility: hidden; font-family: &quot;Helvetica Neue&quot;, sans-serif; font-size: 12px; font-weight: 200;" x="93.37733205159505" y="0" dx="0em" dy="0.95em" fill="rgb(50, 49, 63)" stroke="none" stroke-width="1px">300</text><text style="text-anchor: middle; visibility: inherit; font-family: &quot;Helvetica Neue&quot;, sans-serif; font-size: 12px; font-weight: 200;" x="116.72166506449382" y="0" dx="0em" dy="0.95em" fill="rgb(50, 49, 63)" stroke="none" stroke-width="1px">400</text><text style="text-anchor: middle; visibility: hidden; font-family: &quot;Helvetica Neue&quot;, sans-serif; font-size: 12px; font-weight: 200;" x="140.06599807739258" y="0" dx="0em" dy="0.95em" fill="rgb(50, 49, 63)" stroke="none" stroke-width="1px">500</text><text style="text-anchor: middle; visibility: inherit; font-family: &quot;Helvetica Neue&quot;, sans-serif; font-size: 12px; font-weight: 200;" x="163.41033109029135" y="0" dx="0em" dy="0.95em" fill="rgb(50, 49, 63)" stroke="none" stroke-width="1px">600</text><text style="text-anchor: middle; visibility: hidden; font-family: &quot;Helvetica Neue&quot;, sans-serif; font-size: 12px; font-weight: 200;" x="186.7546641031901" y="0" dx="0em" dy="0.95em" fill="rgb(50, 49, 63)" stroke="none" stroke-width="1px">700</text><text style="text-anchor: middle; visibility: inherit; font-family: &quot;Helvetica Neue&quot;, sans-serif; font-size: 12px; font-weight: 200;" x="210.09899711608887" y="0" dx="0em" dy="0.95em" fill="rgb(50, 49, 63)" stroke="none" stroke-width="1px">800</text><text style="text-anchor: middle; visibility: hidden; font-family: &quot;Helvetica Neue&quot;, sans-serif; font-size: 12px; font-weight: 200;" x="233.44333012898764" y="0" dx="0em" dy="0.95em" fill="rgb(50, 49, 63)" stroke="none" stroke-width="1px">900</text><text style="text-anchor: middle; visibility: inherit; font-family: &quot;Helvetica Neue&quot;, sans-serif; font-size: 12px; font-weight: 200;" x="256.78766314188636" y="0" dx="0em" dy="0.95em" fill="rgb(50, 49, 63)" stroke="none" stroke-width="1px">1k</text><text style="text-anchor: middle; visibility: hidden; font-family: &quot;Helvetica Neue&quot;, sans-serif; font-size: 12px; font-weight: 200;" x="280.13199615478516" y="0" dx="0em" dy="0.95em" fill="rgb(50, 49, 63)" stroke="none" stroke-width="1px">1.1k</text></g><line x1="0" y1="0" x2="280.13199615478516" y2="0" fill="rgb(0, 0, 0)" stroke="rgb(204, 204, 204)" stroke-width="1px"></line></g></g></g></g></svg>